<?xml version="1.0" encoding="UTF-8" standalone="no"?>
<!-- Created with Inkscape (http://www.inkscape.org/) -->

<svg
   width="335.09784"
   height="593.75415"
   viewBox="0 0 335.09784 593.75415"
   version="1.1"
   id="svg1"
   xml:space="preserve"
   xmlns="http://www.w3.org/2000/svg"
   xmlns:svg="http://www.w3.org/2000/svg"><defs
     id="defs1" /><g
     id="layer1"
     transform="translate(-88.45108,-2197.6077)"><path
       style="fill:#2ad4ff"
       d="m 238.49937,2790.7301 c -43.6636,-5.0617 -79.6126,-21.5394 -105.3527,-48.2898 -10.2156,-10.6165 -22.0437,-28.0155 -27.9151,-41.0628 -7.114297,-15.8091 -8.942497,-21.5923 -12.645197,-40 -10.6459,-52.9253 -0.8136,-105.3401 30.388797,-162 10.7979,-19.6077 17.3876,-30.1262 46.0471,-73.5 32.1313,-48.6281 44.6291,-69.155 56.9274,-93.5 22.3522,-44.2468 33.3738,-79.065 37.0359,-117 1.4181,-14.69 1.8478,-16.7223 3.6841,-17.427 0.8888,-0.341 1.7904,-0.4456 2.0037,-0.2323 0.2132,0.2132 2.5995,15.4691 5.3029,33.9018 13.0963,89.2957 55.3986,160.2989 77.0353,201.2575 49.3552,86.7049 102.05,179.932 52.8861,279.5693 -18.0279,29.6818 -45.5626,53.8393 -74.9925,65.7943 -25.458,10.1141 -62.3003,14.9478 -90.4058,12.489 z m 62.7352,-434.5099 c -11.6744,-33.3947 -26.9539,-75.149 -31.3099,-115.8427 -0.677,-6.325 -1.5424,-12.1068 -1.923,-12.8485 -0.3807,-0.7417 -0.9981,2.6319 -1.372,7.4969 -0.7035,9.1522 -4.0972,27.2853 -7.552,40.3516 -8.2989,31.3875 -27.3693,74.0323 -48.9011,109.3522 -2.2975,3.7687 -4.1772,6.9773 -4.1772,7.1302 0,0.3726 -21.3798,34.431 -32.9675,52.5176 -40.6626,63.4684 -56.8646,89.1686 -66.4183,126 -47.069797,181.4637 246.2591,249.2082 286.0852,44.6083 17.0489,-87.5858 -57.0145,-160.2217 -91.4642,-258.7656 z"
       id="path6-0-6" /><g
       id="g14"
       transform="translate(0,-2.6715729)"
       style="fill:none;stroke:#2ad4ff"><circle
         style="fill:none;stroke:#2ad4ff;stroke-width:20"
         id="path12"
         cx="256"
         cy="2686.0735"
         r="66.821594" /><ellipse
         style="fill:#2ad4ff;stroke:#2ad4ff;stroke-width:4.68725"
         id="path12-8-6-2"
         cx="256"
         cy="2716.5308"
         rx="12.727979"
         ry="19.268717" /><g
         id="g13"
         transform="translate(-0.41851807)"
         style="fill:#2ad4ff;stroke:#2ad4ff"><circle
           style="fill:#2ad4ff;stroke:#2ad4ff;stroke-width:3.92379"
           id="path12-8-6-2-6"
           cx="231.41852"
           cy="2673.5459"
           r="13.109711" /><circle
           style="fill:#2ad4ff;stroke:#2ad4ff;stroke-width:3.92379"
           id="path12-8-6-2-6-5"
           cx="281.41852"
           cy="2673.5459"
           r="13.109711" /></g></g></g></svg>
